<?xml version="1.0" encoding="utf-8"?>
<!-- Generator: Adobe Illustrator 28.0.0, SVG Export Plug-In . SVG Version: 6.00 Build 0)  -->
<svg version="1.1" id="Layer_1" xmlns="http://www.w3.org/2000/svg" xmlns:xlink="http://www.w3.org/1999/xlink" x="0px" y="0px"
	 viewBox="0 0 50 50" style="enable-background:new 0 0 50 50;" xml:space="preserve">
<style type="text/css">
	.st0{fill-rule:evenodd;clip-rule:evenodd;fill:#FFFFFF;}
</style>
<path class="st0" d="M43.01,0H6.99C3.13,0,0,3.13,0,6.99v36.02C0,46.87,3.13,50,6.99,50h36.02c3.86,0,6.99-3.13,6.99-6.99V6.99
	C50,3.13,46.87,0,43.01,0z M24.59,37.7l-0.68-4.45h-5.26l-0.68,4.45h-6.94l6.09-25.4h8.32l6.19,25.4H24.59z M38.97,37.7h-6.41V18.45
	h6.41V37.7z M38.97,17.07h-6.41V12.3h6.41V17.07z M21.25,17.49l-1.82,10.78h3.7l-1.82-10.78H21.25z"/>
</svg>
