<?xml version="1.0" encoding="utf-8"?>
<!-- Generator: Adobe Illustrator 28.0.0, SVG Export Plug-In . SVG Version: 6.00 Build 0)  -->
<svg version="1.1" id="Layer_1" xmlns="http://www.w3.org/2000/svg" xmlns:xlink="http://www.w3.org/1999/xlink" x="0px" y="0px"
	 viewBox="0 0 50 50" style="enable-background:new 0 0 50 50;" xml:space="preserve">
<style type="text/css">
	.st0{fill-rule:evenodd;clip-rule:evenodd;fill:#FFFFFF;}
</style>
<g>
	<path class="st0" d="M43.01,0H6.99C3.13,0,0,3.13,0,6.99v36.02C0,46.87,3.13,50,6.99,50h36.02c3.86,0,6.99-3.13,6.99-6.99V6.99
		C50,3.13,46.87,0,43.01,0z M24.72,29.39c0,1.76-0.24,3.21-0.71,4.33c-0.47,1.13-1.09,2.02-1.87,2.67c-0.77,0.64-1.66,1.08-2.66,1.3
		c-1,0.22-2.02,0.33-3.08,0.33c-1.83,0-3.34-0.22-4.51-0.66c-1.18-0.45-2.09-1.2-2.75-2.24c-0.66-1.05-1.11-2.4-1.36-4.06
		c-0.24-1.65-0.37-3.66-0.37-6.01c0-2.39,0.15-4.43,0.44-6.1c0.3-1.66,0.8-3.01,1.5-4.05c0.7-1.03,1.63-1.78,2.78-2.24
		c1.15-0.45,2.58-0.68,4.27-0.68c1.48,0,2.74,0.19,3.77,0.56c1.03,0.38,1.87,0.91,2.52,1.6c0.65,0.7,1.12,1.53,1.41,2.51
		c0.29,0.97,0.44,2.07,0.44,3.29v1.59H18.2v-1.41c0-1.43-0.14-2.41-0.43-2.93c-0.28-0.51-0.74-0.77-1.37-0.77
		c-0.49,0-0.89,0.13-1.18,0.39c-0.3,0.25-0.52,0.71-0.67,1.37c-0.15,0.66-0.25,1.55-0.3,2.66c-0.05,1.12-0.07,2.52-0.07,4.21
		c0,1.7,0.02,3.1,0.07,4.22c0.05,1.11,0.15,2,0.3,2.66c0.15,0.66,0.37,1.11,0.67,1.37c0.29,0.26,0.69,0.39,1.18,0.39
		c0.4,0,0.73-0.1,0.99-0.3c0.25-0.2,0.45-0.53,0.6-1.01c0.14-0.47,0.24-1.09,0.29-1.88c0.06-0.79,0.09-1.78,0.09-2.98h6.35V29.39z
		 M42.59,37.64h-6.34V25.05c0-0.79-0.12-1.37-0.36-1.72c-0.23-0.36-0.63-0.53-1.2-0.53c-0.56,0-0.96,0.17-1.2,0.53
		c-0.23,0.35-0.35,0.93-0.35,1.72v12.59H26.8V18.57h6.13v2.32H33c0.82-1.88,2.36-2.82,4.62-2.82c0.71,0,1.36,0.08,1.96,0.23
		c0.6,0.16,1.12,0.43,1.57,0.83c0.44,0.4,0.79,0.93,1.05,1.59c0.26,0.66,0.39,1.5,0.39,2.53V37.64z"/>
</g>
</svg>
