<?xml version="1.0" encoding="utf-8"?>
<!-- Generator: Adobe Illustrator 28.0.0, SVG Export Plug-In . SVG Version: 6.00 Build 0)  -->
<svg version="1.1" id="Layer_1" xmlns="http://www.w3.org/2000/svg" xmlns:xlink="http://www.w3.org/1999/xlink" x="0px" y="0px"
	 viewBox="0 0 50 50" style="enable-background:new 0 0 50 50;" xml:space="preserve">
<style type="text/css">
	.st0{fill-rule:evenodd;clip-rule:evenodd;fill:#FFFFFF;}
</style>
<g>
	<path class="st0" d="M27.63,32.27c-0.03-0.45-0.09-0.8-0.17-1.04c-0.09-0.25-0.22-0.41-0.38-0.49c-0.16-0.07-0.39-0.11-0.66-0.11
		h-0.57v6.86h0.57c0.27,0,0.5-0.04,0.66-0.12c0.16-0.07,0.29-0.24,0.38-0.48c0.08-0.25,0.14-0.6,0.17-1.05
		c0.02-0.45,0.03-1.04,0.03-1.78S27.65,32.72,27.63,32.27z M27.63,32.27c-0.03-0.45-0.09-0.8-0.17-1.04
		c-0.09-0.25-0.22-0.41-0.38-0.49c-0.16-0.07-0.39-0.11-0.66-0.11h-0.57v6.86h0.57c0.27,0,0.5-0.04,0.66-0.12
		c0.16-0.07,0.29-0.24,0.38-0.48c0.08-0.25,0.14-0.6,0.17-1.05c0.02-0.45,0.03-1.04,0.03-1.78S27.65,32.72,27.63,32.27z M43.01,0
		H6.99C3.13,0,0,3.13,0,6.99v36.02C0,46.87,3.13,50,6.99,50h36.02c3.86,0,6.99-3.13,6.99-6.99V6.99C50,3.13,46.87,0,43.01,0z
		 M21.99,39.4c-9.49,0.34-14.13-1.99-4.37-13.37h0.01c0.01-0.01,0.01-0.02,0.01-0.03c-7.84-3.76-5.5-16.18,3.38-16.08
		C29.89,9.83,32.21,22.24,24.39,26c0,0.01,0,0.02,0.01,0.03h0.01c0.41,0.53,0.81,1.04,1.18,1.53h-3.6V39.4z M30.54,36.13
		c-0.05,0.66-0.19,1.24-0.42,1.75s-0.58,0.91-1.04,1.22c-0.46,0.3-1.11,0.45-1.94,0.45h-4.15V28.56h4.15c0.83,0,1.48,0.16,1.94,0.46
		c0.46,0.3,0.81,0.71,1.04,1.21c0.23,0.51,0.37,1.1,0.42,1.76c0.05,0.66,0.08,1.35,0.08,2.07C30.62,34.78,30.59,35.47,30.54,36.13z
		 M38.41,37c-0.08,0.52-0.24,0.98-0.48,1.39c-0.25,0.4-0.61,0.73-1.07,0.97c-0.47,0.24-1.09,0.36-1.87,0.36
		c-0.81,0-1.45-0.11-1.93-0.33c-0.47-0.22-0.82-0.53-1.06-0.93c-0.23-0.39-0.38-0.85-0.45-1.38c-0.07-0.53-0.1-1.1-0.1-1.7
		c0-0.54,0.04-1.08,0.11-1.6c0.08-0.52,0.24-0.99,0.49-1.4c0.24-0.41,0.6-0.74,1.07-0.99c0.46-0.25,1.09-0.38,1.87-0.38
		c0.81,0,1.45,0.12,1.92,0.35c0.47,0.23,0.82,0.54,1.06,0.94c0.24,0.4,0.39,0.87,0.45,1.39c0.07,0.53,0.1,1.1,0.1,1.71
		C38.52,35.94,38.49,36.47,38.41,37z M35.61,33.3c-0.06-0.19-0.14-0.32-0.24-0.4c-0.1-0.07-0.23-0.1-0.38-0.1
		c-0.16,0-0.28,0.03-0.38,0.1c-0.1,0.08-0.18,0.21-0.24,0.4c-0.06,0.2-0.1,0.47-0.12,0.8c-0.02,0.34-0.03,0.77-0.03,1.3
		c0,0.52,0.01,0.95,0.03,1.28s0.06,0.6,0.12,0.79c0.06,0.2,0.14,0.33,0.24,0.4c0.1,0.07,0.22,0.11,0.38,0.11
		c0.15,0,0.28-0.04,0.38-0.11s0.18-0.2,0.24-0.4c0.06-0.19,0.09-0.46,0.12-0.79c0.02-0.33,0.03-0.76,0.03-1.28
		c0-0.53-0.01-0.96-0.03-1.3C35.7,33.77,35.67,33.5,35.61,33.3z M27.46,31.23c-0.09-0.25-0.22-0.41-0.38-0.49
		c-0.16-0.07-0.39-0.11-0.66-0.11h-0.57v6.86h0.57c0.27,0,0.5-0.04,0.66-0.12c0.16-0.07,0.29-0.24,0.38-0.48
		c0.08-0.25,0.14-0.6,0.17-1.05c0.02-0.45,0.03-1.04,0.03-1.78s-0.01-1.34-0.03-1.79C27.6,31.82,27.54,31.47,27.46,31.23z"/>
</g>
</svg>
