<?xml version="1.0" encoding="utf-8"?>
<!-- Generator: Adobe Illustrator 28.0.0, SVG Export Plug-In . SVG Version: 6.00 Build 0)  -->
<svg version="1.1" id="Layer_1" xmlns="http://www.w3.org/2000/svg" xmlns:xlink="http://www.w3.org/1999/xlink" x="0px" y="0px"
	 viewBox="0 0 50 50" style="enable-background:new 0 0 50 50;" xml:space="preserve">
<style type="text/css">
	.st0{fill-rule:evenodd;clip-rule:evenodd;fill:#FFFFFF;}
</style>
<g>
	<path class="st0" d="M43.01,0H6.99C3.13,0,0,3.13,0,6.99v36.02C0,46.87,3.13,50,6.99,50h36.02c3.86,0,6.99-3.13,6.99-6.99V6.99
		C50,3.13,46.87,0,43.01,0z M23.67,37.53H8.51V12.47h14.84v5.34h-8.31v4.28h7.78v5.12h-7.78v4.98h8.63V37.53z M41.49,37.53h-6.32V25
		c0-0.79-0.12-1.37-0.34-1.72c-0.24-0.35-0.64-0.52-1.2-0.52s-0.96,0.17-1.19,0.52c-0.23,0.35-0.35,0.93-0.35,1.72v12.53h-6.32
		V18.54h6.11v2.32h0.07c0.81-1.87,2.35-2.81,4.6-2.81c0.7,0,1.34,0.08,1.94,0.23c0.6,0.15,1.12,0.43,1.56,0.83
		c0.45,0.39,0.8,0.92,1.05,1.58c0.26,0.65,0.39,1.49,0.39,2.52V37.53z"/>
</g>
</svg>
