<?xml version="1.0" encoding="utf-8"?>
<!-- Generator: Adobe Illustrator 28.0.0, SVG Export Plug-In . SVG Version: 6.00 Build 0)  -->
<svg version="1.1" id="Layer_1" xmlns="http://www.w3.org/2000/svg" xmlns:xlink="http://www.w3.org/1999/xlink" x="0px" y="0px"
	 viewBox="0 0 50 50" style="enable-background:new 0 0 50 50;" xml:space="preserve">
<style type="text/css">
	.st0{fill-rule:evenodd;clip-rule:evenodd;fill:#FFFFFF;}
</style>
<path class="st0" d="M24.5,24c0-2.47-2-4.48-4.48-4.48h-5.97c-2.48,0-4.48,2.01-4.48,4.48c0,1.15,0.43,2.2,1.14,2.99
	c-0.71,0.79-1.14,1.84-1.14,2.99s0.43,2.19,1.14,2.98c-0.71,0.8-1.14,1.84-1.14,2.99c0,2.48,2,4.48,4.48,4.48
	c2.47,0,4.48-2,4.48-4.48V34.2c0.47,0.17,0.97,0.26,1.49,0.26c2.48,0,4.48-2.01,4.48-4.48c0-1.15-0.43-2.2-1.14-2.99
	C24.07,26.2,24.5,25.15,24.5,24z M15.54,35.95c0,0.83-0.67,1.49-1.49,1.49c-0.83,0-1.49-0.66-1.49-1.49c0-0.82,0.66-1.49,1.49-1.49
	h1.49V35.95z M15.54,31.47h-1.49c-0.83,0-1.49-0.67-1.49-1.49c0-0.83,0.66-1.5,1.49-1.5h1.49V31.47z M15.54,25.5h-1.49
	c-0.83,0-1.49-0.67-1.49-1.5c0-0.82,0.66-1.49,1.49-1.49h1.49V25.5z M20.02,31.47c-0.82,0-1.49-0.67-1.49-1.49
	c0-0.83,0.67-1.5,1.49-1.5c0.83,0,1.5,0.67,1.5,1.5C21.52,30.8,20.85,31.47,20.02,31.47z M20.02,25.5h-1.49v-2.99h1.49
	c0.83,0,1.5,0.67,1.5,1.49C21.52,24.83,20.85,25.5,20.02,25.5z M24.5,24c0-2.47-2-4.48-4.48-4.48h-5.97c-2.48,0-4.48,2.01-4.48,4.48
	c0,1.15,0.43,2.2,1.14,2.99c-0.71,0.79-1.14,1.84-1.14,2.99s0.43,2.19,1.14,2.98c-0.71,0.8-1.14,1.84-1.14,2.99
	c0,2.48,2,4.48,4.48,4.48c2.47,0,4.48-2,4.48-4.48V34.2c0.47,0.17,0.97,0.26,1.49,0.26c2.48,0,4.48-2.01,4.48-4.48
	c0-1.15-0.43-2.2-1.14-2.99C24.07,26.2,24.5,25.15,24.5,24z M15.54,35.95c0,0.83-0.67,1.49-1.49,1.49c-0.83,0-1.49-0.66-1.49-1.49
	c0-0.82,0.66-1.49,1.49-1.49h1.49V35.95z M15.54,31.47h-1.49c-0.83,0-1.49-0.67-1.49-1.49c0-0.83,0.66-1.5,1.49-1.5h1.49V31.47z
	 M15.54,25.5h-1.49c-0.83,0-1.49-0.67-1.49-1.5c0-0.82,0.66-1.49,1.49-1.49h1.49V25.5z M20.02,31.47c-0.82,0-1.49-0.67-1.49-1.49
	c0-0.83,0.67-1.5,1.49-1.5c0.83,0,1.5,0.67,1.5,1.5C21.52,30.8,20.85,31.47,20.02,31.47z M20.02,25.5h-1.49v-2.99h1.49
	c0.83,0,1.5,0.67,1.5,1.49C21.52,24.83,20.85,25.5,20.02,25.5z M24.5,24c0-2.47-2-4.48-4.48-4.48h-5.97c-2.48,0-4.48,2.01-4.48,4.48
	c0,1.15,0.43,2.2,1.14,2.99c-0.71,0.79-1.14,1.84-1.14,2.99s0.43,2.19,1.14,2.98c-0.71,0.8-1.14,1.84-1.14,2.99
	c0,2.48,2,4.48,4.48,4.48c2.47,0,4.48-2,4.48-4.48V34.2c0.47,0.17,0.97,0.26,1.49,0.26c2.48,0,4.48-2.01,4.48-4.48
	c0-1.15-0.43-2.2-1.14-2.99C24.07,26.2,24.5,25.15,24.5,24z M15.54,35.95c0,0.83-0.67,1.49-1.49,1.49c-0.83,0-1.49-0.66-1.49-1.49
	c0-0.82,0.66-1.49,1.49-1.49h1.49V35.95z M15.54,31.47h-1.49c-0.83,0-1.49-0.67-1.49-1.49c0-0.83,0.66-1.5,1.49-1.5h1.49V31.47z
	 M15.54,25.5h-1.49c-0.83,0-1.49-0.67-1.49-1.5c0-0.82,0.66-1.49,1.49-1.49h1.49V25.5z M20.02,31.47c-0.82,0-1.49-0.67-1.49-1.49
	c0-0.83,0.67-1.5,1.49-1.5c0.83,0,1.5,0.67,1.5,1.5C21.52,30.8,20.85,31.47,20.02,31.47z M20.02,25.5h-1.49v-2.99h1.49
	c0.83,0,1.5,0.67,1.5,1.49C21.52,24.83,20.85,25.5,20.02,25.5z M24.5,24c0-2.47-2-4.48-4.48-4.48h-5.97c-2.48,0-4.48,2.01-4.48,4.48
	c0,1.15,0.43,2.2,1.14,2.99c-0.71,0.79-1.14,1.84-1.14,2.99s0.43,2.19,1.14,2.98c-0.71,0.8-1.14,1.84-1.14,2.99
	c0,2.48,2,4.48,4.48,4.48c2.47,0,4.48-2,4.48-4.48V34.2c0.47,0.17,0.97,0.26,1.49,0.26c2.48,0,4.48-2.01,4.48-4.48
	c0-1.15-0.43-2.2-1.14-2.99C24.07,26.2,24.5,25.15,24.5,24z M15.54,35.95c0,0.83-0.67,1.49-1.49,1.49c-0.83,0-1.49-0.66-1.49-1.49
	c0-0.82,0.66-1.49,1.49-1.49h1.49V35.95z M15.54,31.47h-1.49c-0.83,0-1.49-0.67-1.49-1.49c0-0.83,0.66-1.5,1.49-1.5h1.49V31.47z
	 M15.54,25.5h-1.49c-0.83,0-1.49-0.67-1.49-1.5c0-0.82,0.66-1.49,1.49-1.49h1.49V25.5z M20.02,31.47c-0.82,0-1.49-0.67-1.49-1.49
	c0-0.83,0.67-1.5,1.49-1.5c0.83,0,1.5,0.67,1.5,1.5C21.52,30.8,20.85,31.47,20.02,31.47z M20.02,25.5h-1.49v-2.99h1.49
	c0.83,0,1.5,0.67,1.5,1.49C21.52,24.83,20.85,25.5,20.02,25.5z M24.5,24c0-2.47-2-4.48-4.48-4.48h-5.97c-2.48,0-4.48,2.01-4.48,4.48
	c0,1.15,0.43,2.2,1.14,2.99c-0.71,0.79-1.14,1.84-1.14,2.99s0.43,2.19,1.14,2.98c-0.71,0.8-1.14,1.84-1.14,2.99
	c0,2.48,2,4.48,4.48,4.48c2.47,0,4.48-2,4.48-4.48V34.2c0.47,0.17,0.97,0.26,1.49,0.26c2.48,0,4.48-2.01,4.48-4.48
	c0-1.15-0.43-2.2-1.14-2.99C24.07,26.2,24.5,25.15,24.5,24z M15.54,35.95c0,0.83-0.67,1.49-1.49,1.49c-0.83,0-1.49-0.66-1.49-1.49
	c0-0.82,0.66-1.49,1.49-1.49h1.49V35.95z M15.54,31.47h-1.49c-0.83,0-1.49-0.67-1.49-1.49c0-0.83,0.66-1.5,1.49-1.5h1.49V31.47z
	 M15.54,25.5h-1.49c-0.83,0-1.49-0.67-1.49-1.5c0-0.82,0.66-1.49,1.49-1.49h1.49V25.5z M20.02,31.47c-0.82,0-1.49-0.67-1.49-1.49
	c0-0.83,0.67-1.5,1.49-1.5c0.83,0,1.5,0.67,1.5,1.5C21.52,30.8,20.85,31.47,20.02,31.47z M20.02,25.5h-1.49v-2.99h1.49
	c0.83,0,1.5,0.67,1.5,1.49C21.52,24.83,20.85,25.5,20.02,25.5z M24.5,24c0-2.47-2-4.48-4.48-4.48h-5.97c-2.48,0-4.48,2.01-4.48,4.48
	c0,1.15,0.43,2.2,1.14,2.99c-0.71,0.79-1.14,1.84-1.14,2.99s0.43,2.19,1.14,2.98c-0.71,0.8-1.14,1.84-1.14,2.99
	c0,2.48,2,4.48,4.48,4.48c2.47,0,4.48-2,4.48-4.48V34.2c0.47,0.17,0.97,0.26,1.49,0.26c2.48,0,4.48-2.01,4.48-4.48
	c0-1.15-0.43-2.2-1.14-2.99C24.07,26.2,24.5,25.15,24.5,24z M15.54,35.95c0,0.83-0.67,1.49-1.49,1.49c-0.83,0-1.49-0.66-1.49-1.49
	c0-0.82,0.66-1.49,1.49-1.49h1.49V35.95z M15.54,31.47h-1.49c-0.83,0-1.49-0.67-1.49-1.49c0-0.83,0.66-1.5,1.49-1.5h1.49V31.47z
	 M15.54,25.5h-1.49c-0.83,0-1.49-0.67-1.49-1.5c0-0.82,0.66-1.49,1.49-1.49h1.49V25.5z M20.02,31.47c-0.82,0-1.49-0.67-1.49-1.49
	c0-0.83,0.67-1.5,1.49-1.5c0.83,0,1.5,0.67,1.5,1.5C21.52,30.8,20.85,31.47,20.02,31.47z M20.02,25.5h-1.49v-2.99h1.49
	c0.83,0,1.5,0.67,1.5,1.49C21.52,24.83,20.85,25.5,20.02,25.5z M43.01,0H6.99C3.13,0,0,3.13,0,6.99v36.02C0,46.87,3.13,50,6.99,50
	h36.02c3.86,0,6.99-3.13,6.99-6.99V6.99C50,3.13,46.87,0,43.01,0z M27.01,5.62c1.38,0.53,2.5,1.54,4.75,3.56l7.88,7.09
	c2.42,2.18,3.71,3.35,4.44,4.75h-7.13c-4.7,0-7.04,0-8.5-1.46c-1.46-1.46-1.46-3.8-1.46-8.5L27.01,5.62z M44.91,28.98
	c0,7.51,0,11.27-2.33,13.6c-2.33,2.33-6.09,2.33-13.6,2.33h-7.96c-7.51,0-11.27,0-13.6-2.33c-2.33-2.33-2.33-6.09-2.33-13.6v-7.96
	c0-7.51,0-11.27,2.33-13.6c2.33-2.33,6.11-2.33,13.66-2.33c1.2,0,2.17,0,2.98,0.03c-0.02,0.16-0.04,0.32-0.04,0.49L24,11.25
	c0,2.19,0,4.12,0.21,5.67c0.23,1.69,0.75,3.38,2.13,4.75c1.37,1.38,3.06,1.9,4.75,2.13c1.55,0.21,3.48,0.2,5.67,0.2h8.07
	c0.08,1.07,0.08,2.37,0.08,4.11V28.98z M20.02,19.52h-5.97c-2.48,0-4.48,2.01-4.48,4.48c0,1.15,0.43,2.2,1.14,2.99
	c-0.71,0.79-1.14,1.84-1.14,2.99s0.43,2.19,1.14,2.98c-0.71,0.8-1.14,1.84-1.14,2.99c0,2.48,2,4.48,4.48,4.48
	c2.47,0,4.48-2,4.48-4.48V34.2c0.47,0.17,0.97,0.26,1.49,0.26c2.48,0,4.48-2.01,4.48-4.48c0-1.15-0.43-2.2-1.14-2.99
	c0.71-0.79,1.14-1.84,1.14-2.99C24.5,21.53,22.5,19.52,20.02,19.52z M15.54,35.95c0,0.83-0.67,1.49-1.49,1.49
	c-0.83,0-1.49-0.66-1.49-1.49c0-0.82,0.66-1.49,1.49-1.49h1.49V35.95z M15.54,31.47h-1.49c-0.83,0-1.49-0.67-1.49-1.49
	c0-0.83,0.66-1.5,1.49-1.5h1.49V31.47z M15.54,25.5h-1.49c-0.83,0-1.49-0.67-1.49-1.5c0-0.82,0.66-1.49,1.49-1.49h1.49V25.5z
	 M20.02,31.47c-0.82,0-1.49-0.67-1.49-1.49c0-0.83,0.67-1.5,1.49-1.5c0.83,0,1.5,0.67,1.5,1.5C21.52,30.8,20.85,31.47,20.02,31.47z
	 M20.02,25.5h-1.49v-2.99h1.49c0.83,0,1.5,0.67,1.5,1.49C21.52,24.83,20.85,25.5,20.02,25.5z M24.5,24c0-2.47-2-4.48-4.48-4.48
	h-5.97c-2.48,0-4.48,2.01-4.48,4.48c0,1.15,0.43,2.2,1.14,2.99c-0.71,0.79-1.14,1.84-1.14,2.99s0.43,2.19,1.14,2.98
	c-0.71,0.8-1.14,1.84-1.14,2.99c0,2.48,2,4.48,4.48,4.48c2.47,0,4.48-2,4.48-4.48V34.2c0.47,0.17,0.97,0.26,1.49,0.26
	c2.48,0,4.48-2.01,4.48-4.48c0-1.15-0.43-2.2-1.14-2.99C24.07,26.2,24.5,25.15,24.5,24z M15.54,35.95c0,0.83-0.67,1.49-1.49,1.49
	c-0.83,0-1.49-0.66-1.49-1.49c0-0.82,0.66-1.49,1.49-1.49h1.49V35.95z M15.54,31.47h-1.49c-0.83,0-1.49-0.67-1.49-1.49
	c0-0.83,0.66-1.5,1.49-1.5h1.49V31.47z M15.54,25.5h-1.49c-0.83,0-1.49-0.67-1.49-1.5c0-0.82,0.66-1.49,1.49-1.49h1.49V25.5z
	 M20.02,31.47c-0.82,0-1.49-0.67-1.49-1.49c0-0.83,0.67-1.5,1.49-1.5c0.83,0,1.5,0.67,1.5,1.5C21.52,30.8,20.85,31.47,20.02,31.47z
	 M20.02,25.5h-1.49v-2.99h1.49c0.83,0,1.5,0.67,1.5,1.49C21.52,24.83,20.85,25.5,20.02,25.5z M24.5,24c0-2.47-2-4.48-4.48-4.48
	h-5.97c-2.48,0-4.48,2.01-4.48,4.48c0,1.15,0.43,2.2,1.14,2.99c-0.71,0.79-1.14,1.84-1.14,2.99s0.43,2.19,1.14,2.98
	c-0.71,0.8-1.14,1.84-1.14,2.99c0,2.48,2,4.48,4.48,4.48c2.47,0,4.48-2,4.48-4.48V34.2c0.47,0.17,0.97,0.26,1.49,0.26
	c2.48,0,4.48-2.01,4.48-4.48c0-1.15-0.43-2.2-1.14-2.99C24.07,26.2,24.5,25.15,24.5,24z M15.54,35.95c0,0.83-0.67,1.49-1.49,1.49
	c-0.83,0-1.49-0.66-1.49-1.49c0-0.82,0.66-1.49,1.49-1.49h1.49V35.95z M15.54,31.47h-1.49c-0.83,0-1.49-0.67-1.49-1.49
	c0-0.83,0.66-1.5,1.49-1.5h1.49V31.47z M15.54,25.5h-1.49c-0.83,0-1.49-0.67-1.49-1.5c0-0.82,0.66-1.49,1.49-1.49h1.49V25.5z
	 M20.02,31.47c-0.82,0-1.49-0.67-1.49-1.49c0-0.83,0.67-1.5,1.49-1.5c0.83,0,1.5,0.67,1.5,1.5C21.52,30.8,20.85,31.47,20.02,31.47z
	 M20.02,25.5h-1.49v-2.99h1.49c0.83,0,1.5,0.67,1.5,1.49C21.52,24.83,20.85,25.5,20.02,25.5z M24.5,24c0-2.47-2-4.48-4.48-4.48
	h-5.97c-2.48,0-4.48,2.01-4.48,4.48c0,1.15,0.43,2.2,1.14,2.99c-0.71,0.79-1.14,1.84-1.14,2.99s0.43,2.19,1.14,2.98
	c-0.71,0.8-1.14,1.84-1.14,2.99c0,2.48,2,4.48,4.48,4.48c2.47,0,4.48-2,4.48-4.48V34.2c0.47,0.17,0.97,0.26,1.49,0.26
	c2.48,0,4.48-2.01,4.48-4.48c0-1.15-0.43-2.2-1.14-2.99C24.07,26.2,24.5,25.15,24.5,24z M15.54,35.95c0,0.83-0.67,1.49-1.49,1.49
	c-0.83,0-1.49-0.66-1.49-1.49c0-0.82,0.66-1.49,1.49-1.49h1.49V35.95z M15.54,31.47h-1.49c-0.83,0-1.49-0.67-1.49-1.49
	c0-0.83,0.66-1.5,1.49-1.5h1.49V31.47z M15.54,25.5h-1.49c-0.83,0-1.49-0.67-1.49-1.5c0-0.82,0.66-1.49,1.49-1.49h1.49V25.5z
	 M20.02,31.47c-0.82,0-1.49-0.67-1.49-1.49c0-0.83,0.67-1.5,1.49-1.5c0.83,0,1.5,0.67,1.5,1.5C21.52,30.8,20.85,31.47,20.02,31.47z
	 M20.02,25.5h-1.49v-2.99h1.49c0.83,0,1.5,0.67,1.5,1.49C21.52,24.83,20.85,25.5,20.02,25.5z M24.5,24c0-2.47-2-4.48-4.48-4.48
	h-5.97c-2.48,0-4.48,2.01-4.48,4.48c0,1.15,0.43,2.2,1.14,2.99c-0.71,0.79-1.14,1.84-1.14,2.99s0.43,2.19,1.14,2.98
	c-0.71,0.8-1.14,1.84-1.14,2.99c0,2.48,2,4.48,4.48,4.48c2.47,0,4.48-2,4.48-4.48V34.2c0.47,0.17,0.97,0.26,1.49,0.26
	c2.48,0,4.48-2.01,4.48-4.48c0-1.15-0.43-2.2-1.14-2.99C24.07,26.2,24.5,25.15,24.5,24z M15.54,35.95c0,0.83-0.67,1.49-1.49,1.49
	c-0.83,0-1.49-0.66-1.49-1.49c0-0.82,0.66-1.49,1.49-1.49h1.49V35.95z M15.54,31.47h-1.49c-0.83,0-1.49-0.67-1.49-1.49
	c0-0.83,0.66-1.5,1.49-1.5h1.49V31.47z M15.54,25.5h-1.49c-0.83,0-1.49-0.67-1.49-1.5c0-0.82,0.66-1.49,1.49-1.49h1.49V25.5z
	 M20.02,31.47c-0.82,0-1.49-0.67-1.49-1.49c0-0.83,0.67-1.5,1.49-1.5c0.83,0,1.5,0.67,1.5,1.5C21.52,30.8,20.85,31.47,20.02,31.47z
	 M20.02,25.5h-1.49v-2.99h1.49c0.83,0,1.5,0.67,1.5,1.49C21.52,24.83,20.85,25.5,20.02,25.5z"/>
</svg>
