<?xml version="1.0" encoding="utf-8"?>
<!-- Generator: Adobe Illustrator 28.0.0, SVG Export Plug-In . SVG Version: 6.00 Build 0)  -->
<svg version="1.1" id="Layer_1" xmlns="http://www.w3.org/2000/svg" xmlns:xlink="http://www.w3.org/1999/xlink" x="0px" y="0px"
	 viewBox="0 0 50 50" style="enable-background:new 0 0 50 50;" xml:space="preserve">
<style type="text/css">
	.st0{fill-rule:evenodd;clip-rule:evenodd;fill:#FFFFFF;}
</style>
<path class="st0" d="M43.01,0H6.99C3.13,0,0,3.13,0,6.99v36.02C0,46.87,3.13,50,6.99,50h36.02c3.86,0,6.99-3.13,6.99-6.99V6.99
	C50,3.13,46.87,0,43.01,0z M18.57,28.24c0.04,0.85,0.11,1.52,0.23,2.02s0.29,0.85,0.51,1.04c0.22,0.2,0.52,0.29,0.9,0.29
	c0.27,0,0.51-0.05,0.71-0.16c0.21-0.11,0.38-0.31,0.52-0.6c0.14-0.29,0.26-0.71,0.34-1.23c0.08-0.53,0.12-1.2,0.12-2.02h-1.77V24.2
	h6.43v10.41h-3.38l-0.11-1.69h-0.05c-0.16,0.41-0.39,0.75-0.68,1.02c-0.3,0.27-0.63,0.47-0.99,0.6c-0.37,0.13-0.76,0.23-1.18,0.28
	c-0.42,0.05-0.84,0.08-1.27,0.08c-1.27,0-2.27-0.21-3-0.63c-0.73-0.42-1.29-1.05-1.66-1.89c-0.38-0.84-0.61-1.88-0.71-3.11
	c-0.1-1.23-0.15-2.64-0.15-4.23c0-1.61,0.09-3.03,0.28-4.26c0.19-1.23,0.55-2.27,1.07-3.11c0.53-0.84,1.25-1.48,2.18-1.92
	c0.93-0.44,2.13-0.66,3.59-0.66c0.87,0,1.68,0.12,2.43,0.35c0.75,0.23,1.38,0.61,1.91,1.13c0.54,0.52,0.96,1.18,1.26,2
	c0.3,0.81,0.46,1.8,0.46,2.96h-4.82c0-1.02-0.09-1.76-0.27-2.22c-0.18-0.55-0.56-0.83-1.15-0.83c-0.41,0-0.74,0.1-0.98,0.3
	c-0.24,0.2-0.42,0.55-0.54,1.04c-0.12,0.5-0.19,1.18-0.23,2.02c-0.04,0.85-0.05,1.92-0.05,3.2C18.52,26.33,18.54,27.39,18.57,28.24z
	 M36.98,24.24c-0.21-0.04-0.42-0.06-0.62-0.08c-0.2-0.02-0.39-0.03-0.59-0.03c-0.86,0-1.52,0.19-2,0.56
	c-0.48,0.37-0.71,1.04-0.71,2.01v7.91h-4.82v-14.5h4.67v2.31h0.05c0.27-0.88,0.7-1.54,1.28-2c0.59-0.46,1.24-0.68,1.96-0.68h0.78
	V24.24z"/>
</svg>
