<?xml version="1.0" encoding="utf-8"?>
<!-- Generator: Adobe Illustrator 28.0.0, SVG Export Plug-In . SVG Version: 6.00 Build 0)  -->
<svg version="1.1" id="Layer_1" xmlns="http://www.w3.org/2000/svg" xmlns:xlink="http://www.w3.org/1999/xlink" x="0px" y="0px"
	 viewBox="0 0 50 50" style="enable-background:new 0 0 50 50;" xml:space="preserve">
<style type="text/css">
	.st0{fill-rule:evenodd;clip-rule:evenodd;fill:#FFFFFF;}
</style>
<path class="st0" d="M30.99,25.3c0.04,0.68,0.07,1.54,0.07,2.57c0,1.01-0.03,1.85-0.07,2.54c-0.05,0.68-0.14,1.22-0.27,1.63
	c-0.13,0.42-0.31,0.7-0.54,0.87c-0.24,0.16-0.53,0.24-0.88,0.24c-0.38,0-0.68-0.08-0.92-0.24c-0.23-0.17-0.42-0.45-0.55-0.87
	c-0.13-0.41-0.21-0.95-0.26-1.63c-0.05-0.69-0.07-1.53-0.07-2.54c0-1.03,0.02-1.89,0.07-2.57s0.13-1.23,0.26-1.64
	c0.13-0.41,0.32-0.7,0.55-0.86c0.24-0.17,0.54-0.25,0.92-0.25c0.35,0,0.64,0.08,0.88,0.25c0.23,0.16,0.41,0.45,0.54,0.86
	C30.85,24.07,30.94,24.62,30.99,25.3z"/>
<path class="st0" d="M43.01,0H6.99C3.13,0,0,3.13,0,6.99v36.02C0,46.87,3.13,50,6.99,50h36.02c3.86,0,6.99-3.13,6.99-6.99V6.99
	C50,3.13,46.87,0,43.01,0z M19.15,37.38H12.6V12.23h6.55V37.38z M37.4,37.38h-6.13v-2.6H31.2c-0.4,1.05-0.94,1.82-1.62,2.28
	c-0.68,0.47-1.59,0.71-2.72,0.71c-2.11,0-3.59-0.84-4.43-2.5c-0.85-1.67-1.27-4.28-1.27-7.82c0-1.81,0.14-3.32,0.42-4.55
	c0.29-1.22,0.68-2.2,1.18-2.96c0.51-0.75,1.12-1.29,1.85-1.62c0.73-0.32,1.53-0.49,2.4-0.49c0.89,0,1.69,0.2,2.41,0.58
	c0.72,0.39,1.24,1.08,1.57,2.06h0.07v-8.24h6.34V37.38z"/>
</svg>
