<?xml version="1.0" encoding="utf-8"?>
<!-- Generator: Adobe Illustrator 28.0.0, SVG Export Plug-In . SVG Version: 6.00 Build 0)  -->
<svg version="1.1" id="Layer_1" xmlns="http://www.w3.org/2000/svg" xmlns:xlink="http://www.w3.org/1999/xlink" x="0px" y="0px"
	 viewBox="0 0 301.47 507.35" style="enable-background:new 0 0 301.47 507.35;" xml:space="preserve">
<style type="text/css">
	.st0{fill:#091F40;}
</style>
<g>
	<path class="st0" d="M46.34,87.32c0,6.37,2.15,58.25,40.61,59.28c38.28,1.03,25.81-53,65.79-88.71
		c-26.21,7.92-37.66,23.75-55.42,25.3C77,84.96,91.77,64.78,79.25,62.28C54.93,57.44,46.34,80.95,46.34,87.32z"/>
	<path class="st0" d="M205.58,17.3c5.78-29.27,54.58,21.64,54.3,43.41C259.6,82.49,133.32,209.03,49.05,258.06
		C163.91,139.33,201.46,38.15,205.58,17.3z"/>
	<path class="st0" d="M17.69,283.74c-5.72,9-20.4,41.96,5.48,41.68c25.88-0.28,150.46-105.35,194.57-103.08
		c44.12,2.26-43.27,67.17-36.06,85.13c3.15,7.85,92.03-10.18,103.9-51.25c16.17-55.92-2.58-60.66-37.68-65.3
		C179.58,181.86,28.29,267.06,17.69,283.74z"/>
	<path class="st0" d="M169.97,270.67c18.31,6.04,10.06,44.57-28.22,98c-8.11,11.32,49.04-12.39,75.89-8.95s57.3,49.73,49.04,70.21
		s-24.43,9.46-55.92,21.85c-17.1,6.73-43.88,25.3-80.02,49.9c14.14-15.45,76.73-86.04,54.2-98.69
		c-13.34-7.49-25.38,47.91-57.47,41.56c-32.61-6.45-35.79-25.94-35.44-47.1c0.34-21.17,29.33-54.6,29.68-79.89
		c0.34-25.3-31.61-14.65-12.68-34.09C109.02,283.47,124.55,255.7,169.97,270.67z"/>
</g>
</svg>
