<?xml version="1.0" encoding="utf-8"?>
<!-- Generator: Adobe Illustrator 28.0.0, SVG Export Plug-In . SVG Version: 6.00 Build 0)  -->
<svg version="1.1" id="Layer_1" xmlns="http://www.w3.org/2000/svg" xmlns:xlink="http://www.w3.org/1999/xlink" x="0px" y="0px"
	 viewBox="0 0 299.83 153.63" style="enable-background:new 0 0 299.83 153.63;" xml:space="preserve">
<style type="text/css">
	.st0{fill:#FFFFFF;}
</style>
<g>
	<g>
		<path class="st0" d="M123.15,149.71c-0.05,0-0.11-0.02-0.16-0.04l-42.93-24.19l-17.54,19.03c-0.07,0.08-0.16,0.11-0.25,0.11
			c-0.07,0-0.14-0.02-0.2-0.06L4.4,102.33c-0.08-0.06-0.13-0.15-0.13-0.25c-0.01-0.1,0.04-0.19,0.11-0.26L113.69,3.81
			c0.06-0.06,0.15-0.09,0.22-0.09c0.08,0,0.16,0.03,0.22,0.08c0.13,0.11,0.16,0.29,0.07,0.43C101.07,25.77,95.5,56.5,98.93,88.55
			c3.05,28.55,12.63,52.32,24.41,60.55c0.15,0.1,0.18,0.3,0.09,0.45C123.37,149.65,123.26,149.71,123.15,149.71"/>
		<path class="st0" d="M113.91,4.72L113.91,4.72L113.91,4.72z M113.91,3.39c-0.16,0-0.32,0.06-0.45,0.17L4.15,101.57
			C4,101.7,3.92,101.9,3.92,102.1c0.01,0.2,0.11,0.39,0.27,0.51l57.67,42.22c0.12,0.09,0.26,0.13,0.39,0.13
			c0.18,0,0.36-0.07,0.5-0.22l17.36-18.84l42.7,24.06c0.1,0.06,0.22,0.09,0.32,0.09c0.23,0,0.44-0.11,0.57-0.31
			c0.19-0.3,0.11-0.7-0.18-0.9c-5.69-3.98-11-11.8-15.36-22.62c-4.35-10.81-7.43-23.85-8.91-37.69
			c-3.42-31.97,2.13-62.64,15.22-84.12c0.17-0.28,0.11-0.65-0.15-0.86C114.21,3.44,114.06,3.39,113.91,3.39 M113.91,4.06
			c-29.41,48.25-14.51,128.73,9.23,145.32l-43.16-24.32l-17.72,19.22L4.59,102.06L113.91,4.06z"/>
	</g>
	<path class="st0" d="M274.54,135.33v-17.6l10.04,17.6h10.04V95.19h-10.04v17.79l-10.04-17.79H264.5v40.14H274.54z M261.33,135.33
		v-10.04h-15.41v-5.01h11.72v-10.04h-11.72v-5.01h15.41V95.19h-25.44v40.14H261.33z M207.87,125.21h-5.09v10.11h20.38v-10.11h-5.25
		V105.3h5.25V95.19h-20.38v10.11h5.09V125.21z M199.6,135.33v-10.04H184.2v-5.01h11.72v-10.04H184.2v-5.01h15.41V95.19h-25.44v40.14
		H199.6z M151.29,135.33h11.72l8.54-40.14h-10l-4.39,21.4l-4.43-21.4h-9.99l-4.39,21.4l-4.43-21.4h-9.99l8.54,40.14h11.72
		l3.57-16.66L151.29,135.33z"/>
	<path class="st0" d="M287.13,88.27l7.48-7.48v-26h-18.7v14.49h3.74v4.03h-7.48V43.4h7.48v7.48h14.95V35.92l-7.48-7.48h-22.44
		l-7.48,7.48V80.8l7.48,7.48H287.13z M223.03,88.27V62.04l14.96,26.23h14.95V28.44h-14.95v26.53l-14.96-26.53h-14.96v59.83H223.03z
		 M203.34,88.27V73.31h-22.96v-7.48h17.47V50.88h-17.47V43.4h22.96V28.44h-37.92v59.83H203.34z M153.68,88.27l7.48-7.48V58.36
		l-7.48-7.48h-14.96V43.4h7.48v3.74h14.95V35.92l-7.48-7.48h-22.44l-7.48,7.48v22.44l7.48,7.48h14.96v7.48h-7.48v-3.74h-14.96V80.8
		l7.48,7.48H153.68z"/>
</g>
</svg>
