<?xml version="1.0" encoding="utf-8"?>
<!-- Generator: Adobe Illustrator 28.0.0, SVG Export Plug-In . SVG Version: 6.00 Build 0)  -->
<svg version="1.1" id="Layer_1" xmlns="http://www.w3.org/2000/svg" xmlns:xlink="http://www.w3.org/1999/xlink" x="0px" y="0px"
	 viewBox="0 0 50 50" style="enable-background:new 0 0 50 50;" xml:space="preserve">
<style type="text/css">
	.st0{fill-rule:evenodd;clip-rule:evenodd;fill:#FFFFFF;}
</style>
<path class="st0" d="M43.01,0H6.99C3.13,0,0,3.13,0,6.99v36.02C0,46.87,3.13,50,6.99,50h36.02c3.86,0,6.99-3.13,6.99-6.99V6.99
	C50,3.13,46.87,0,43.01,0z M23.48,39.4C9.3,39.74,9.45,36.44,17.62,26.03h0.01c0.01-0.01,0.01-0.02,0.01-0.03
	c-5.21-2.75-7.04-10.43-1.76-14.36h0.01c0.29-0.22,0.59-0.42,0.9-0.61c3.83-2.32,9.22-0.88,11.38,3.04
	c2.8,4.38,0.07,9.67-3.88,11.92c0,0.01,0.01,0.03,0.01,0.04c0.48,0.39,0.76,0.95,1.12,1.44h-1.94V39.4z M35.04,39.54h-2.67v-8.18
	h-0.03l-1.53,8.18h-2.06l-1.52-8.18H27.2v8.18h-2.67V28.56h4.09l1.15,6.51h0.03l1.15-6.51h4.09V39.54z"/>
</svg>
