<?xml version="1.0" encoding="utf-8"?>
<!-- Generator: Adobe Illustrator 28.0.0, SVG Export Plug-In . SVG Version: 6.00 Build 0)  -->
<svg version="1.1" id="Layer_1" xmlns="http://www.w3.org/2000/svg" xmlns:xlink="http://www.w3.org/1999/xlink" x="0px" y="0px"
	 viewBox="0 0 50 50" style="enable-background:new 0 0 50 50;" xml:space="preserve">
<style type="text/css">
	.st0{fill-rule:evenodd;clip-rule:evenodd;fill:#FFFFFF;}
</style>
<path class="st0" d="M18.66,20.02c0,1.05-0.22,1.83-0.65,2.32c-0.44,0.49-1.06,0.74-1.89,0.74h-1.23v-6.13h1.23
	C17.81,16.95,18.66,17.97,18.66,20.02z"/>
<path class="st0" d="M43.01,0H6.99C3.13,0,0,3.13,0,6.99v36.02C0,46.87,3.13,50,6.99,50h36.02c3.86,0,6.99-3.13,6.99-6.99V6.99
	C50,3.13,46.87,0,43.01,0z M23.33,25.85c-1.4,1.3-3.45,1.95-6.15,1.95h-2.29v9.58H8.34V12.23h9.83c1.24,0,2.32,0.2,3.24,0.6
	c0.91,0.4,1.67,0.95,2.27,1.64c0.6,0.69,1.04,1.51,1.32,2.45s0.42,1.96,0.42,3.06C25.42,22.59,24.72,24.54,23.33,25.85z
	 M41.13,34.07c-0.35,0.77-0.85,1.45-1.49,2.01c-0.65,0.56-1.45,0.98-2.4,1.27c-0.95,0.28-2.02,0.42-3.22,0.42
	c-2.66,0-4.56-0.53-5.73-1.59c-1.16-1.05-1.74-2.63-1.74-4.71h5.56c0,0.37,0.04,0.72,0.11,1.05c0.07,0.33,0.19,0.6,0.35,0.81
	c0.31,0.45,0.75,0.67,1.34,0.67c0.49,0,0.92-0.14,1.29-0.42c0.36-0.28,0.54-0.68,0.54-1.2c0-0.57-0.23-1-0.68-1.3
	c-0.46-0.31-1.03-0.58-1.71-0.81c-0.68-0.24-1.42-0.48-2.2-0.74c-0.79-0.26-1.52-0.61-2.21-1.06c-0.68-0.44-1.25-1.04-1.7-1.78
	c-0.46-0.74-0.69-1.71-0.69-2.9c0-0.85,0.15-1.63,0.46-2.35c0.3-0.71,0.77-1.34,1.39-1.88c0.62-0.54,1.41-0.96,2.36-1.27
	c0.95-0.3,2.07-0.46,3.36-0.46c4.77,0,7.15,2,7.15,5.99h-5.49c0-0.82-0.15-1.38-0.44-1.67c-0.3-0.3-0.71-0.44-1.25-0.44
	c-0.47,0-0.86,0.13-1.16,0.38c-0.31,0.26-0.46,0.63-0.46,1.1c0,0.54,0.23,0.94,0.68,1.21c0.46,0.27,1.03,0.51,1.71,0.72
	c0.68,0.22,1.42,0.44,2.2,0.67c0.79,0.24,1.52,0.57,2.21,1.01c0.68,0.43,1.25,1.02,1.7,1.76c0.46,0.74,0.69,1.72,0.69,2.94
	C41.66,32.44,41.48,33.3,41.13,34.07z"/>
</svg>
