<?xml version="1.0" encoding="utf-8"?>
<!-- Generator: Adobe Illustrator 28.0.0, SVG Export Plug-In . SVG Version: 6.00 Build 0)  -->
<svg version="1.1" id="Layer_1" xmlns="http://www.w3.org/2000/svg" xmlns:xlink="http://www.w3.org/1999/xlink" x="0px" y="0px"
	 viewBox="0 0 50 50" style="enable-background:new 0 0 50 50;" xml:space="preserve">
<style type="text/css">
	.st0{fill-rule:evenodd;clip-rule:evenodd;fill:#FFFFFF;}
</style>
<path class="st0" d="M43.01,0H6.99C3.13,0,0,3.13,0,6.99v36.02C0,46.87,3.13,50,6.99,50h36.02c3.86,0,6.99-3.13,6.99-6.99V6.99
	C50,3.13,46.87,0,43.01,0z M23.63,27.88c0,1.37-0.14,2.51-0.43,3.42c-0.29,0.91-0.72,1.64-1.27,2.18c-0.56,0.55-1.25,0.92-2.07,1.12
	s-1.76,0.3-2.84,0.3c-1.05,0-2-0.1-2.82-0.3c-0.83-0.2-1.53-0.57-2.08-1.12c-0.56-0.54-0.98-1.27-1.27-2.18
	c-0.29-0.91-0.44-2.05-0.44-3.42V15.1h5.08v14.07c0,0.94,0.14,1.58,0.41,1.89c0.28,0.32,0.65,0.48,1.12,0.48
	c0.48,0,0.85-0.16,1.12-0.48c0.28-0.31,0.41-0.95,0.41-1.89V15.1h5.08V27.88z M33.91,34.6l-1.95-5.87h-0.05l-1.94,5.87h-5.6
	l4.54-9.89l-4.29-9.61h5.68l1.61,5.65h0.05l1.62-5.65h5.68l-4.23,9.61l4.56,9.89H33.91z"/>
</svg>
