<?xml version="1.0" encoding="utf-8"?>
<!-- Generator: Adobe Illustrator 28.0.0, SVG Export Plug-In . SVG Version: 6.00 Build 0)  -->
<svg version="1.1" id="Layer_1" xmlns="http://www.w3.org/2000/svg" xmlns:xlink="http://www.w3.org/1999/xlink" x="0px" y="0px"
	 viewBox="0 0 50 50" style="enable-background:new 0 0 50 50;" xml:space="preserve">
<style type="text/css">
	.st0{fill-rule:evenodd;clip-rule:evenodd;fill:#FFFFFF;}
</style>
<g>
	<polygon class="st0" points="23.9,24.96 31.26,19.28 31.26,30.58 	"/>
	<path class="st0" d="M43.01,0H6.99C3.13,0,0,3.13,0,6.99v36.02C0,46.87,3.13,50,6.99,50h36.02c3.86,0,6.99-3.13,6.99-6.99V6.99
		C50,3.13,46.87,0,43.01,0z M36.84,34.58l-5.78,2.88c0,0-0.52,0.15-0.95-0.3l-0.05-0.05l-10.04-9.22l-4.28,3.29
		c-0.66,0.55-1.11,0.07-1.11,0.07l-1.87-1.73c-0.42-0.56,0-0.87,0-0.87l4.04-3.72l-4.04-3.71c0,0-0.61-0.44,0.12-1.03l1.7-1.54
		c0,0,0.48-0.52,1-0.06l4.44,3.4l9.87-9.07c0,0,0,0,0.01-0.01c0.01-0.01,0.02-0.01,0.03-0.02c0.17-0.17,0.83-0.69,1.77-0.1
		l5.01,2.44c0,0,0.77,0.26,0.77,1.02v17.19C37.48,33.44,37.58,34.07,36.84,34.58z"/>
</g>
</svg>
