<?xml version="1.0" encoding="utf-8"?>
<!-- Generator: Adobe Illustrator 28.0.0, SVG Export Plug-In . SVG Version: 6.00 Build 0)  -->
<svg version="1.1" id="Layer_1" xmlns="http://www.w3.org/2000/svg" xmlns:xlink="http://www.w3.org/1999/xlink" x="0px" y="0px"
	 viewBox="0 0 50 50" style="enable-background:new 0 0 50 50;" xml:space="preserve">
<style type="text/css">
	.st0{fill-rule:evenodd;clip-rule:evenodd;fill:#FFFFFF;}
</style>
<g>
	<path class="st0" d="M36.57,25.3c0.05,0.67,0.07,1.53,0.07,2.55c0,1-0.02,1.84-0.07,2.52c-0.04,0.67-0.13,1.22-0.26,1.62
		c-0.13,0.41-0.31,0.7-0.54,0.86c-0.24,0.16-0.53,0.24-0.88,0.24c-0.37,0-0.67-0.08-0.9-0.24c-0.24-0.16-0.42-0.45-0.55-0.86
		c-0.13-0.4-0.21-0.95-0.26-1.62c-0.05-0.68-0.07-1.52-0.07-2.52c0-1.02,0.02-1.88,0.07-2.55c0.05-0.68,0.13-1.22,0.26-1.63
		c0.13-0.4,0.31-0.69,0.55-0.85c0.23-0.17,0.53-0.25,0.9-0.25c0.35,0,0.64,0.08,0.88,0.25c0.23,0.16,0.41,0.45,0.54,0.85
		C36.44,24.08,36.53,24.62,36.57,25.3z"/>
	<path class="st0" d="M43.01,0H6.99C3.13,0,0,3.13,0,6.99v36.02C0,46.87,3.13,50,6.99,50h36.02c3.86,0,6.99-3.13,6.99-6.99V6.99
		C50,3.13,46.87,0,43.01,0z M19.27,37.29l-2.49-7.52h-0.07l-2.48,7.52H7.06l5.81-12.66l-5.49-12.3h7.27l2.06,7.23h0.07l2.07-7.23
		h7.27l-5.42,12.3l5.84,12.66H19.27z M42.94,37.29h-6.09V34.7h-0.07c-0.4,1.05-0.93,1.81-1.61,2.27c-0.67,0.47-1.57,0.7-2.69,0.7
		c-2.1,0-3.56-0.82-4.4-2.48c-0.84-1.65-1.26-4.24-1.26-7.76c0-1.79,0.14-3.3,0.42-4.51c0.28-1.21,0.67-2.19,1.17-2.94
		c0.5-0.74,1.11-1.28,1.83-1.61c0.73-0.32,1.52-0.48,2.38-0.48c0.89,0,1.69,0.19,2.4,0.57c0.71,0.39,1.23,1.07,1.55,2.05h0.07v-8.18
		h6.3V37.29z"/>
</g>
</svg>
